<svg width="112" height="139" viewBox="0 0 112 139" fill="none" xmlns="http://www.w3.org/2000/svg">
<path d="M112 90.35C112 76.5152 105 55.6 105 55.6L77 55.6C77 66.025 73.5 72.1062 70 78.1875C66.5 84.2687 63 90.35 63 100.775C63 113.024 66.5 139 84 139C101.5 139 112 111.2 112 90.35ZM91 27.8C83.2781 27.8 77 34.0333 77 41.7V48.65L105 48.65L105 41.7C105 34.0333 98.7219 27.8 91 27.8ZM0 62.55C0 83.4 10.5 111.2 28 111.2C45.5 111.2 49 85.2244 49 72.975C49 62.55 45.5 56.4687 42 50.3875C38.5 44.3062 35 38.225 35 27.8L7 27.8C7 27.8 0 48.7152 0 62.55ZM21 0C13.2781 0 7 6.23328 7 13.9V20.85L35 20.85V13.9C35 6.23328 28.7219 0 21 0Z" fill="#FFF6DE"/>
</svg>
